<svg width="4598" height="1024" viewBox="0 0 4598 1024" fill="none" xmlns="http://www.w3.org/2000/svg">
<g clip-path="url(#clip0_194_166)">
<path d="M305.29 93.49C382.441 72.9796 467.008 69.2517 546.359 73.8133C643.628 80.1783 740.721 104.286 824.266 156.393C922.416 217.609 893.073 288.026 897.853 380.98C904.897 517.946 896.627 585.11 817.053 699.685C851.262 601.951 860.376 524.616 828.527 424.328C819.593 529.697 796.14 591.058 712.886 661.592C708.935 664.951 704.926 668.243 700.859 671.457L659.494 661.092C743.916 561.168 766.957 473.503 755.972 341.2C754.004 318 751.323 294.866 747.935 271.835C699.478 441.489 673.751 526.391 533.499 638.895C538.855 530.298 558.605 439.831 623.946 350.115C684.993 266.299 751.333 233.558 849.595 211.094C723.187 192.339 625.541 231.609 518.146 297.925C364.916 392.532 250.643 520.68 188.379 690.862C148.013 706.292 113.275 720.345 75.4678 741.641C73.1991 743.856 72.0308 743.716 68.6374 744.957C60.1298 731.049 70.6104 332.29 66.3687 288.094C61.2593 234.862 100.351 191.238 138.206 154.978C105.058 229.825 111.098 271.229 111.336 350.619L111.263 518.431C323.484 380.18 305.678 330.642 305.29 93.49Z" fill="#1B1C31"/>
<path d="M305.29 93.49C382.441 72.9796 467.008 69.2517 546.359 73.8133C547.096 267.594 447.491 319.032 305.678 426.621C235.164 480.115 96.2254 649.259 71.037 734.496L75.4678 741.641C73.1991 743.856 72.0308 743.716 68.6374 744.957C60.1298 731.049 70.6104 332.29 66.3687 288.094C61.2593 234.862 100.351 191.238 138.206 154.978C105.058 229.825 111.098 271.229 111.336 350.619L111.263 518.431C323.484 380.18 305.678 330.642 305.29 93.49Z" fill="#114320"/>
<path d="M1271.35 188.86C1356.94 189.005 1441.08 188.181 1529.93 189.364C1716.89 191.851 1751.69 431.476 1596.29 508.059C1573.36 519.359 1478.02 539.569 1467.98 506.386C1468.77 503.672 1469.7 500.521 1470.74 496.924C1500.48 491.15 1521.78 488.329 1544.74 466.539C1571.02 441.597 1574.57 393.295 1575.35 358.673C1576.15 323.067 1567.84 275.245 1540.6 249.674C1508.84 219.856 1477.92 222.9 1438.34 223.826L1438.2 302.014C1438.04 363.652 1432.08 766.298 1441.27 789.882C1450.27 812.967 1477.68 815.555 1492.56 833.084C1495.39 843.008 1496.09 840.123 1493.44 848.616C1480.69 853.978 1298.03 852.412 1275.87 849.654L1272.19 843.264C1275.81 811.924 1327.6 824.189 1327.29 772.906C1326.29 604.886 1328.58 436.609 1326.54 268.609C1326.03 226.827 1308.01 231.107 1278.04 213.951C1269.61 209.128 1271.64 197.692 1271.35 188.86Z" fill="#1B1C31"/>
<path d="M1833.07 348.736C2036.78 332.206 1976.26 486.652 1986.41 625.838C1990.59 683.064 1988.45 670.189 2032.82 671.308L2036.75 676.612C2036.76 717.599 1965.09 738.643 1932.79 724.968C1906.15 713.687 1902.12 703.134 1890.47 678.251C1838.39 725.292 1772.97 758.314 1713.19 702.993C1691.78 675.298 1683.54 632.042 1699.73 600.072C1731.61 537.106 1824.24 515.84 1886.76 494.442C1887.37 459.704 1896.86 376.174 1845.38 373.251C1800.89 390.165 1807.84 464.478 1769.89 477.955C1720.75 495.411 1691.91 451.07 1721.44 408.192C1746.3 372.097 1791.99 357.171 1833.07 348.736ZM1882.21 526.223C1823.59 550.141 1759.45 598.632 1811.4 665.094C1843.43 679.297 1860.5 670.115 1886.57 649.159C1886.76 629.313 1890.67 536.31 1882.21 526.223Z" fill="#1B1C31"/>
<path d="M3298.98 345.441C3397.12 341.156 3435.95 385.26 3463.34 474.825C3393.92 503.891 3323.8 530.122 3255.17 561.307C3290.71 664.509 3377.68 682.227 3452.54 603.772C3456.97 607.762 3465.09 618.383 3469.25 623.478C3438.66 672.309 3409.7 713.591 3349.9 729.332C3311.01 739.546 3269.64 733.389 3235.4 712.292C3105.47 633.183 3129.44 384.286 3298.98 345.441ZM3364.98 478.731C3353.87 434.327 3347.57 376.446 3289.64 379.863C3239.69 412.308 3243.21 475.599 3249.98 528.773C3267.69 520.522 3285.84 511.758 3303.78 504.152L3364.98 478.731Z" fill="#114320"/>
<path d="M4426.83 345.963C4461.78 343.141 4486.99 355.164 4520.15 356.39C4525.19 356.574 4534.16 336.897 4550.49 346.699C4550.88 348.149 4552.48 354.941 4552.33 355.76C4548.31 380.517 4562.08 446.668 4548.41 464.163L4541.09 463.698C4530.04 455.534 4509.14 421.189 4496.15 405.487C4466.97 364.733 4387.08 364.01 4388.63 425.653C4389.84 474.605 4496.1 492.905 4531.49 519.688C4606.24 576.275 4584.81 685.822 4503.03 721.04C4476.91 732.277 4452.13 733.232 4424.84 732.815C4402.15 730.043 4358.28 715.344 4342.43 718.99C4335.98 726.116 4334.87 727.875 4325.95 731.065C4321.54 729.466 4320.04 729.965 4317.85 725.772C4308.64 708.373 4309.22 611.949 4312.04 598.443L4318.53 595.195C4347.09 602.632 4384.51 719.218 4452.67 704.025C4513.26 690.519 4518.93 627.718 4461.1 601.933C4403.17 576.1 4322.6 561.339 4311.36 485.236C4301.9 401.633 4349.36 355.731 4426.83 345.963Z" fill="#114320"/>
<path d="M2972.41 346.003C2988.74 344.728 3006.06 345.63 3023 348.96C3063.19 356.862 3123.27 390.311 3112.52 439.737C3108.96 452.055 3102.56 466.511 3090.7 472.323C3034.79 499.732 3021.66 445.06 3005.48 406.565C3001.3 396.642 2989.8 379.437 2979.14 377.639C2944.86 371.86 2918.4 415.805 2913.21 444.711C2903.2 496.091 2906.47 559.518 2935.3 604.756C2971.76 661.973 3028.5 666.341 3082.07 632.131C3090.18 625.354 3101.06 613.085 3108.59 605.052L3125.22 628.011C3120.9 634.555 3116.51 641.046 3112.04 647.489C3083.22 689.411 3048.89 722.443 2996.63 731.615C2956.39 738.421 2915.1 728.633 2882.19 704.482C2758.6 614.621 2792.06 368.826 2972.41 346.003Z" fill="#114320"/>
<path d="M2529.77 177.199C2537.49 184.417 2533.09 308.474 2533.02 326.497L2533.4 592.842C2533.38 617.657 2531.55 645.299 2533.14 669.615C2534.75 694.129 2563.66 689 2571.34 714.194L2567.07 721.717C2547.78 725.993 2423.94 724.136 2398.41 724.117C2393.59 720.728 2394.7 720.462 2391.96 713.985C2400.41 688.637 2434.41 698.4 2433.88 658.814C2433.28 614.109 2433.43 568.696 2433.47 523.942L2435.58 272.979C2435.94 239.366 2397.65 227.562 2398.12 207.158C2414.29 200.153 2505.54 182.381 2529.77 177.199Z" fill="#1B1C31"/>
<path d="M3685.4 600.445C3706.54 541.847 3732.04 482.982 3745.99 422.386C3753.45 389.999 3701.2 380.88 3707.44 356.981C3723.98 350.19 3821.63 350.301 3835.94 362.299L3835.9 369.212C3830.73 380.682 3823.95 382.853 3812.71 388.738C3780.14 431.757 3696.94 663.824 3673.7 726.872L3631.7 727.105C3588.36 625.828 3550.5 519.708 3507.82 417.887C3498.97 396.761 3482.65 387.725 3468.67 370.443C3468.55 364.088 3468.45 358.659 3468.36 354.155C3491.86 354.296 3632.03 350.117 3641.36 360.351C3640.62 377.022 3608.77 394.769 3615.4 414.213C3636.7 476.675 3661.76 538.657 3685.4 600.445Z" fill="#114320"/>
<path d="M2238.28 601.37C2257.89 542.389 2285.23 485.453 2299.16 424.721C2308.66 383.264 2256.42 386.507 2262.57 356.617C2281.07 352.137 2374.26 349.466 2385.07 363.641C2380.81 380.065 2375.21 381.568 2360.64 392.489C2339.3 421.604 2244.6 676.014 2225.06 726.9L2183.2 727.002C2142.79 623.538 2102.06 519.251 2059.91 416.461C2045.63 381.64 2025.5 395.054 2021.91 354.605C2063.42 354.455 2151.47 352.613 2195.64 356.563C2198.4 356.811 2198.83 362.288 2199.83 366.162C2194.89 379.216 2183.06 378.15 2170.43 394.215C2161.13 415.584 2226.09 569.468 2238.28 601.37Z" fill="#1B1C31"/>
<path d="M416.757 2.6226C563.539 -10.9218 875.103 24.0396 927.438 201.129C935.626 228.839 928.728 260.314 921.723 287.762C913.724 246.586 906.225 218.683 877.343 185.806C800.735 98.6015 659.693 63.2426 549.36 54.6623C541.444 53.8721 533.513 53.2952 525.568 52.9413C371.664 46.0382 56.3775 92.8134 49.6974 295.353C-39.3104 92.0329 277.959 14.2764 416.757 2.6226Z" fill="#114320"/>
<path d="M4163.41 248.582C4170.93 248.907 4171.8 249.14 4179.07 251.321C4187.94 268.133 4183.68 331.278 4183.53 354.518L4268.95 354.629C4269.48 366.467 4271.27 375.988 4266.33 386.42C4250.14 400.454 4211.16 393.27 4183.39 393.44C4183.29 434.853 4174.08 637.413 4195.46 661.535C4219.26 688.42 4240.68 656.726 4266.28 657.753C4276.7 664.652 4273.12 661.05 4279.13 674.008C4275.49 683.378 4250.14 702.517 4240.93 710.283C4085.41 802.65 4075.48 621.934 4085.17 522.639C4088.71 486.321 4085.37 432.032 4085.46 393.876C4073.2 394.133 4055.75 395.757 4045.13 391.307C4044.98 386.988 4043.77 379.551 4047.02 376.458C4091.86 333.721 4132.53 304.156 4163.41 248.582Z" fill="#114320"/>
<path d="M3975.17 349.272C3979.77 348.52 3978.46 349.136 3983.94 351.075C3984.77 353.198 3989.03 589.963 3985.06 612C3973.03 678.529 4020.49 704.61 4019.04 721.358C3997.76 726.502 3886.75 724.247 3857.87 724.141C3852.22 724.723 3849.51 722.58 3844.42 719.953C3843.68 697.11 3873.23 694.657 3875.46 685.975C3894.74 611.045 3882.59 492.898 3883.05 412.887C3883.12 399.837 3863.05 393.817 3851.86 386.817C3847.87 376.549 3848.11 380.815 3850.34 370.596C3865.61 363.504 3953.01 352.471 3975.17 349.272Z" fill="#114320"/>
<path d="M2730.68 349.212C2735.82 348.238 2734.54 348.747 2740.15 350.109C2745.36 361.685 2742.59 598.949 2741.24 629.756C2738.29 697.327 2774.57 692.305 2778.04 719.704C2768.55 726.418 2638.88 724.014 2617.18 723.97C2610.43 724.464 2608.9 723.005 2602.98 719.859C2603.82 696.813 2629.71 695.65 2633.9 685.906C2648.19 652.739 2643.79 427.764 2637.64 406.356C2624.08 388.721 2611.29 396.467 2605.23 376.892L2608.59 370.503C2624.82 363.721 2707.48 352.722 2730.68 349.212Z" fill="#114320"/>
<path d="M482.102 725.25C498.808 737.961 576.369 872.298 579.865 900.812C588.145 968.321 555.874 1008.92 485.714 1020.35C462.702 1019.65 440.305 1012.71 420.924 1000.28C321.306 935.279 438.977 791.629 482.102 725.25ZM456.747 812C440.628 847.339 408.833 910.446 424.21 946.93C440.745 986.166 484.407 991.683 518.535 973.219C531.977 960.309 538.333 952.921 549.909 938.252C516.31 955.316 477.694 970.799 455.739 925.712C436.872 886.95 459.297 845.609 456.747 812Z" fill="#1B1C31"/>
<path d="M600.294 313.152L600.764 313.492C602.766 319.105 590.22 328.466 585.237 333.629C498.173 423.79 448.775 529.717 405.437 645.905C367.087 649.105 324.559 657.641 286.694 665.306C284.251 663.556 285.269 663.58 284.348 658.931C338.869 518.935 471.201 386.357 600.294 313.152Z" fill="#1B1C31"/>
<path d="M418.347 686.754C428.968 685.15 458.112 685.014 470.129 684.641C446.269 728.924 421.144 774.172 399.383 819.357C388.805 808.92 376.676 800.185 363.423 793.461C277.75 750.729 156.442 777.289 70.731 806.191C43.3272 816.793 17.6637 828.519 -9.04688 840.609C106.817 739.492 268.67 699.053 418.347 686.754Z" fill="#114320"/>
<path d="M498.836 684.266C672.61 687.068 834.182 731.778 972.088 839.405L923.171 817.513C821.481 777.743 655.74 735.263 566.286 819.763L498.836 684.266Z" fill="#114320"/>
<path d="M2688.02 184.918C2698.23 189.678 2746.67 240.142 2757.79 251.457C2735.42 274.386 2714.55 293.665 2690.8 315.223C2671.31 304.704 2638.74 269.248 2621.94 251.782C2641.33 230.258 2667.19 205.719 2688.02 184.918Z" fill="#114320"/>
<path d="M3930.23 184.969C3943.22 188.59 3987.77 237.731 4000.33 250.897C3978.8 272.512 3956.6 293.396 3933.67 313.504C3921.33 310.62 3876.87 262.783 3865.14 250.737C3884.54 229.141 3909.34 205.678 3930.23 184.969Z" fill="#114320"/>
</g>
<defs>
<clipPath id="clip0_194_166">
<rect width="4598" height="1024" fill="white"/>
</clipPath>
</defs>
</svg>
