<svg width="1024" height="1024" viewBox="0 0 1024 1024" fill="none" xmlns="http://www.w3.org/2000/svg">
<g clip-path="url(#clip0_194_149)">
<path d="M335.218 93.1684C395.427 77.6829 464.868 71.7676 526.841 72.2893C541.934 72.4169 567.092 72.9938 582.135 74.8643C678.231 79.254 886.931 127.084 923.882 240.019C926.951 249.407 925.964 275.153 925.947 285.773L925.964 339.362L925.955 434.678C925.931 453.835 926.309 473.55 925.404 492.623C921.783 568.895 890.239 631.365 847.75 693.094L845.973 691.201C873.525 620.131 882.553 551.275 869.229 475.732C866.637 461.037 861.757 439.673 855.865 425.904C854.671 445.89 853.141 466.141 849.248 485.809C836.608 547.967 803.895 604.257 756.148 646.013C748.519 652.77 735.772 663.345 727.295 668.694C714.984 665.386 698.994 661.839 686.321 659.337C765.48 573.577 788.934 483.35 785.963 367.393C785.239 339.065 780.655 298.75 775.43 270.939C766.032 307.767 754.946 344.144 742.199 379.953C702.146 494.607 656.34 561.175 561.841 637.586C564.285 511.148 604.676 387.592 697.414 298.36C735.442 261.476 782.12 234.725 833.176 220.557C845.603 217.082 866.168 214.133 875.821 211.008C775.479 185.533 651.658 235.507 567.19 286.252C436.814 364.582 317.63 475.98 250.465 614C242.089 631.217 223.359 671.179 218.568 689.728C182.803 702.509 134.27 722.589 102.225 743.352L98.4485 745.253C97.1203 712.038 98.2197 671.204 98.2304 637.372L98.1432 436.446L98.0609 320.545C98.0411 304.735 97.2355 273.742 98.9694 258.985C103.689 218.83 137.832 179.412 169.069 155.301C145.025 198.658 142.521 220.499 142.679 268.473L142.861 322.661L142.97 518.637C147.864 515.567 152.715 512.16 157.499 508.91C193.168 484.678 229.092 461.263 260.038 431.034C312.706 379.586 337.355 307.909 335.204 235.074C334.86 223.428 335.159 211.139 335.134 199.434L335.218 93.1684Z" fill="#1A1B2E"/>
<path d="M335.218 93.1684C395.427 77.6829 464.868 71.7676 526.841 72.2893C541.934 72.4169 567.092 72.9938 582.135 74.8643C579.411 75.0281 577.584 74.7129 575.518 76.0148C574.877 98.2205 576.078 117.073 572.77 139.217C561.973 211.645 524.397 273.512 470.68 322.235C434.903 354.687 395.77 381.799 356.991 410.544C273.404 475.987 196.417 562.344 142.606 653.7C133.196 669.673 106.332 719.05 102.57 735.756C102.271 738.908 102.101 740.257 102.225 743.352L98.4485 745.253C97.1203 712.038 98.2197 671.204 98.2304 637.372L98.1432 436.446L98.0609 320.545C98.0411 304.735 97.2355 273.742 98.9694 258.985C103.689 218.83 137.832 179.412 169.069 155.301C145.025 198.658 142.521 220.499 142.679 268.473L142.861 322.661L142.97 518.637C147.864 515.567 152.715 512.16 157.499 508.91C193.168 484.678 229.092 461.263 260.038 431.034C312.706 379.586 337.355 307.909 335.204 235.074C334.86 223.428 335.159 211.139 335.134 199.434L335.218 93.1684Z" fill="#0D411F"/>
<path d="M102.571 735.758C102.272 738.91 102.101 740.259 102.226 743.354L98.4492 745.255L98.7282 744.325C99.431 741.897 101.421 738.153 102.571 735.758Z" fill="#081B20"/>
<path d="M80.0828 290.779C78.8352 288.341 77.6354 285.878 76.4841 283.392C62.2808 252.344 60.9929 216.926 72.9059 184.931C95.04 126.506 158.777 81.3548 214.611 57.1009C360.15 -6.12065 536.049 -14.0111 689.982 19.5134C722.521 26.3834 753.925 34.9553 785.148 46.3112C883.976 82.2502 996.35 163.264 950.47 283.938C950.141 285.042 949.557 287.561 948.676 288.17L948.553 288.123C947.821 287.093 948.125 279.862 948.109 278.047C943.237 227.577 915.479 187.784 876.8 156.559C761.06 63.1224 574.045 42.0153 431.537 56.3618C322.851 67.303 188.034 103.717 116.553 192.038C94.6507 219.101 80.2894 248.674 81.0679 283.962C81.4473 286.301 82.5262 290.994 82.0966 293.375C82.0769 293.484 81.816 293.482 81.7567 293.448C80.9543 292.985 80.4647 291.541 80.0828 290.779Z" fill="#0D411F"/>
<path d="M948.104 278.047C948.886 280.427 949.157 281.785 950.466 283.938C950.136 285.043 949.552 287.562 948.672 288.171L948.548 288.123C947.816 287.094 948.12 279.862 948.104 278.047Z" fill="#0A332D"/>
<path d="M81.0632 283.961C81.4426 286.3 82.5215 290.993 82.0919 293.374C82.0722 293.483 81.8113 293.481 81.752 293.447C80.9496 292.984 80.46 291.54 80.0781 290.778L81.0632 283.961Z" fill="#0A332D"/>
<path d="M510.944 723.914C514.03 726.926 521.782 740.678 524.531 745.188C534.044 760.61 543.467 776.089 552.799 791.618L583.989 842.584C599.279 867.857 610.208 886.571 611.41 917.382C612.323 945.255 602.044 972.33 582.87 992.583C563.341 1013.47 539.508 1023.27 511.232 1024.07C492.773 1023.84 474.715 1018.6 458.997 1008.92C424.328 987.661 402.484 943.124 411.208 902.733C419.403 864.787 444.188 831.013 464.585 798.507L510.944 723.914ZM485.858 810.299C478.611 827.317 471.765 844.508 465.324 861.848C457.983 881.467 449.77 902.107 448.769 923.216C447.526 949.418 464.052 972.724 487.936 982.739C503.053 989.092 520.087 989.084 535.197 982.706C551.483 975.826 564.231 961.178 571.86 945.542C570.041 946.217 568.493 946.62 566.609 947.155C541.262 966.141 505.81 961.071 487.512 934.77C470.804 910.748 475.141 883.533 479.496 856.417C481.753 842.608 484.159 828.823 486.713 815.063C486.417 813.475 486.132 811.887 485.858 810.299Z" fill="#1A1B2E"/>
<path d="M19.9727 838.479C42.7643 820.094 64.9823 803.075 90.4279 788.435C214.846 716.822 355.921 685.879 498.482 683.41C482.876 714.04 467.045 744.564 450.994 774.963C443.394 789.464 434.602 805.363 427.652 819.946C399.582 787.02 350.864 774.371 309.277 771.482C212.522 764.767 106.273 794.212 21.779 839.639L19.9727 838.479Z" fill="#0D411F"/>
<path d="M640.145 306.551L640.927 308.157C579.625 360.22 518.472 452.257 483.246 524.058C464.483 563.231 447.798 603.358 433.259 644.291C391.582 648.719 350.229 655.804 309.453 665.499C326.944 626.03 345.505 588.989 369.674 553.1C434.616 456.678 538.98 363.531 640.145 306.551Z" fill="#1A1B2E"/>
<path d="M526.844 683.375C556.462 682.93 602.44 687.35 631.293 690.929C734.013 703.677 838.586 734.373 928.55 786.161C955.041 801.411 978.026 818.429 1002.11 836.896L999.703 838.122C908.117 784.82 677.156 725.979 595.371 819.812C572.139 774.887 549.475 728.653 526.844 683.375Z" fill="#0D411F"/>
<path d="M1002.11 836.895C1004.97 839.059 1007.26 841.215 1009.9 843.626C1006.67 841.956 1002.79 840.014 999.707 838.121L1002.11 836.895Z" fill="#165C52"/>
<path d="M19.97 838.477L21.7763 839.637C16.721 843.118 13.114 844.204 19.97 838.477Z" fill="#757C79"/>
<path d="M845.966 691.199L847.744 693.092C847.135 693.89 845.456 696.647 844.411 696.655C843.703 695.742 845.036 693.528 845.398 692.631L845.966 691.199Z" fill="#32373E"/>
<path d="M643.741 304.352L644.893 304.919L643.626 305.962C642.663 306.767 641.93 307.39 640.926 308.162L640.145 306.555C641.453 305.653 642.366 305.13 643.741 304.352Z" fill="#32373E"/>
</g>
<defs>
<clipPath id="clip0_194_149">
<rect width="1024" height="1024" fill="white"/>
</clipPath>
</defs>
</svg>
